<svg width="100" height="100" viewBox="0 0 100 100" fill="none" xmlns="http://www.w3.org/2000/svg">
<path fill-rule="evenodd" clip-rule="evenodd" d="M68.3334 100H90C95.5205 99.9945 99.9945 95.5205 100 90V28.3334C100 26.4924 98.5076 25 96.6666 25H95V18.3334C95 15.5721 92.7613 13.3334 90 13.3334C87.2387 13.3334 85 15.5721 85 18.3334V25H81.6666V18.3334C81.6666 15.5721 79.4279 13.3334 76.6666 13.3334C73.9053 13.3334 71.6666 15.5721 71.6666 18.3334V25H70C68.159 25 66.6666 26.4924 66.6666 28.3334V43.515L32.9766 0.636719L32.9566 0.65332C32.806 0.452868 32.6114 0.289705 32.3877 0.176427C32.164 0.0631495 31.9173 0.0027872 31.6666 0H10C4.47949 0.00546875 0.00547028 4.47949 0 10V71.6666C0 73.5076 1.49238 75 3.3334 75H5V81.6666C5 84.4279 7.23868 86.6666 10 86.6666C12.7613 86.6666 15 84.4279 15 81.6666V75H18.3334V81.6666C18.3334 84.4279 20.5721 86.6666 23.3334 86.6666C26.0947 86.6666 28.3334 84.4279 28.3334 81.6666V75H30C31.841 75 33.3334 73.5076 33.3334 71.6666V56.485L67.0234 99.3633L67.0434 99.3467C67.194 99.5471 67.3886 99.7103 67.6123 99.8235C67.836 99.9368 68.0827 99.9972 68.3334 100ZM23.3332 83.3332C22.4127 83.3332 21.6666 82.5871 21.6666 81.6666H21.6664V75H24.9998V81.6666C24.9998 82.5871 24.2537 83.3332 23.3332 83.3332ZM10 83.3332C9.0795 83.3332 8.3334 82.5871 8.3334 81.6666H8.3332V75H11.6666V81.6666C11.6666 82.5871 10.9205 83.3332 10 83.3332ZM10 3.3334H30V71.6666H3.3334V10C3.3334 6.31816 6.31817 3.3334 10 3.3334ZM33.3334 26.09V6.48496L66.6664 48.9084V68.5164L61.3098 61.7031C61.0332 61.3658 60.6355 61.1504 60.2019 61.103C59.7683 61.0556 59.3334 61.18 58.9905 61.4497C58.6476 61.7193 58.4241 62.1126 58.3679 62.5451C58.3117 62.9776 58.4273 63.415 58.6898 63.7633L66.6666 73.91V93.515L33.3332 51.0918V31.4834L37.0232 36.1801C37.1574 36.3552 37.325 36.502 37.5163 36.6119C37.7077 36.7218 37.9189 36.7926 38.1378 36.8202C38.3567 36.8478 38.5789 36.8317 38.7916 36.7728C39.0042 36.7138 39.203 36.6133 39.3764 36.4769C39.5499 36.3405 39.6945 36.1711 39.802 35.9784C39.9094 35.7856 39.9776 35.5735 40.0024 35.3543C40.0272 35.135 40.0083 34.9131 39.9466 34.7012C39.885 34.4893 39.7819 34.2918 39.6434 34.1201L33.3334 26.09ZM77.8453 17.1549C78.1578 17.4675 78.3334 17.8914 78.3334 18.3334L78.3336 25H75.0002V18.3334C75.0002 17.8914 75.1758 17.4675 75.4883 17.1549C75.8009 16.8424 76.2248 16.6668 76.6668 16.6668C77.1088 16.6668 77.5327 16.8424 77.8453 17.1549ZM91.1785 17.1549C91.491 17.4675 91.6666 17.8914 91.6666 18.3334V25H88.3334V18.3334C88.3334 17.8914 88.509 17.4675 88.8215 17.1549C89.1341 16.8424 89.558 16.6668 90 16.6668C90.442 16.6668 90.8659 16.8424 91.1785 17.1549ZM70 28.3334H96.6666V90.0002C96.6666 93.682 93.6818 96.6668 90 96.6668H70V28.3334ZM84.9996 90.0002H89.9996C91.8406 90.0002 93.333 88.5078 93.333 86.667V73.3336C93.333 71.4926 91.8406 70.0002 89.9996 70.0002H84.9996V66.6666C84.9996 66.2246 84.824 65.8007 84.5115 65.4881C84.1989 65.1756 83.775 65 83.333 65C82.891 65 82.4671 65.1756 82.1545 65.4881C81.842 65.8007 81.6664 66.2246 81.6664 66.6666V70H76.6664C74.8254 70 73.333 71.4924 73.333 73.3334V86.6668C73.333 88.5078 74.8254 90.0002 76.6664 90.0002H81.6664V93.3336C81.6664 93.7756 81.842 94.1995 82.1545 94.5121C82.4671 94.8246 82.891 95.0002 83.333 95.0002C83.775 95.0002 84.1989 94.8246 84.5115 94.5121C84.824 94.1995 84.9996 93.7756 84.9996 93.3336V90.0002ZM76.6662 73.3336H89.9996V86.667H76.6662V73.3336ZM78.333 79.9999C78.333 77.2386 80.5717 74.9999 83.333 74.9999C86.0943 74.9999 88.333 77.2386 88.333 79.9999C88.333 82.7612 86.0943 84.9999 83.333 84.9999C80.5717 84.9999 78.333 82.7612 78.333 79.9999ZM84.9996 79.9999C84.9996 79.5579 84.824 79.134 84.5115 78.8214C84.1989 78.5089 83.775 78.3333 83.333 78.3333C82.891 78.3333 82.4671 78.5089 82.1545 78.8214C81.842 79.134 81.6664 79.5579 81.6664 79.9999C81.6664 80.4419 81.842 80.8658 82.1545 81.1784C82.4671 81.4909 82.891 81.6665 83.333 81.6665C83.775 81.6665 84.1989 81.4909 84.5115 81.1784C84.824 80.8658 84.9996 80.4419 84.9996 79.9999ZM89.9996 56.6665H84.9996V59.9999C84.9996 60.4419 84.824 60.8658 84.5115 61.1784C84.1989 61.4909 83.775 61.6665 83.333 61.6665C82.891 61.6665 82.4671 61.4909 82.1545 61.1784C81.842 60.8658 81.6664 60.4419 81.6664 59.9999V56.6665H76.6664C74.8254 56.6665 73.333 55.1741 73.333 53.3331V39.9999C73.333 38.1589 74.8254 36.6665 76.6664 36.6665H81.6664V33.3331C81.6664 32.8911 81.842 32.4672 82.1545 32.1546C82.4671 31.8421 82.891 31.6665 83.333 31.6665C83.775 31.6665 84.1989 31.8421 84.5115 32.1546C84.824 32.4672 84.9996 32.8911 84.9996 33.3331V36.6665H89.9996C91.8406 36.6665 93.333 38.1589 93.333 39.9999V53.3333C93.333 55.1741 91.8406 56.6665 89.9996 56.6665ZM89.9996 39.9999H76.6662V53.3333H89.9996V39.9999ZM83.3339 41.6667C80.5726 41.6667 78.3339 43.9052 78.3339 46.6667C78.3339 49.4283 80.5726 51.6667 83.3339 51.6667C86.0952 51.6667 88.3339 49.4281 88.3339 46.6667C88.3339 43.9054 86.0952 41.6667 83.3339 41.6667ZM84.5123 45.4883C84.8249 45.8008 85.0005 46.2247 85.0005 46.6667C85.0005 47.1087 84.8249 47.5326 84.5123 47.8452C84.1998 48.1577 83.7759 48.3333 83.3339 48.3333C82.8919 48.3333 82.468 48.1577 82.1554 47.8452C81.8429 47.5326 81.6673 47.1087 81.6673 46.6667C81.6673 46.2247 81.8429 45.8008 82.1554 45.4883C82.468 45.1757 82.8919 45.0001 83.3339 45.0001C83.7759 45.0001 84.1998 45.1757 84.5123 45.4883ZM18.3339 30.0001H23.3339C25.1747 30.0001 26.6671 28.5077 26.6673 26.6669V13.3335C26.6673 11.4925 25.1749 10.0001 23.3339 10.0001H18.3339V6.66673C18.3339 6.22472 18.1583 5.80081 17.8457 5.48826C17.5332 5.17571 17.1093 5.00013 16.6673 5.00013C16.2253 5.00013 15.8014 5.17571 15.4888 5.48826C15.1763 5.80081 15.0007 6.22472 15.0007 6.66673V10.0001H10.0007C8.15966 10.0001 6.66728 11.4925 6.66728 13.3335V26.6667C6.66728 28.5077 8.15966 30.0001 10.0007 30.0001H15.0007V33.3335C15.0007 33.7755 15.1763 34.1994 15.4888 34.512C15.8014 34.8245 16.2253 35.0001 16.6673 35.0001C17.1093 35.0001 17.5332 34.8245 17.8457 34.512C18.1583 34.1994 18.3339 33.7755 18.3339 33.3335V30.0001ZM10.0005 13.3335H23.3339V26.6669H10.0005V13.3335ZM16.6658 25C13.9045 25 11.6658 22.7613 11.6658 20C11.6658 17.2387 13.9045 15 16.6658 15C19.4272 15 21.6658 17.2387 21.6658 20C21.6658 22.7613 19.4273 25 16.6658 25ZM16.6658 18.3334C16.2238 18.3334 15.7999 18.509 15.4874 18.8215C15.1748 19.1341 14.9992 19.558 14.9992 20C14.9992 20.442 15.1748 20.8659 15.4874 21.1785C15.7999 21.491 16.2238 21.6666 16.6658 21.6666C17.1078 21.6666 17.5317 21.491 17.8443 21.1785C18.1568 20.8659 18.3324 20.442 18.3324 20C18.3324 19.558 18.1568 19.1341 17.8443 18.8215C17.5317 18.509 17.1078 18.3334 16.6658 18.3334ZM23.3326 63.3334H18.3326V66.6668C18.3326 67.1088 18.157 67.5327 17.8445 67.8453C17.5319 68.1578 17.108 68.3334 16.666 68.3334C16.224 68.3334 15.8001 68.1578 15.4876 67.8453C15.175 67.5327 14.9994 67.1088 14.9994 66.6668V63.3334H9.99941C8.1584 63.3334 6.66602 61.841 6.66602 60V46.6666C6.66602 44.8256 8.1584 43.3332 9.99941 43.3332H14.9994V40C14.9994 39.558 15.175 39.1341 15.4876 38.8215C15.8001 38.509 16.224 38.3334 16.666 38.3334C17.108 38.3334 17.5319 38.509 17.8445 38.8215C18.157 39.1341 18.3326 39.558 18.3326 40V43.3334H23.3326C25.1736 43.3334 26.666 44.8258 26.666 46.6668V60C26.6658 61.841 25.1734 63.3334 23.3326 63.3334ZM23.3326 46.6666H9.99922V60H23.3326V46.6666ZM11.6668 53.3333C11.6668 56.0946 13.9054 58.3333 16.6668 58.3333C19.4283 58.3333 21.6668 56.0946 21.6668 53.3333C21.6668 50.572 19.4281 48.3333 16.6668 48.3333C13.9054 48.3333 11.6668 50.572 11.6668 53.3333ZM15.0002 53.3331C15.0002 52.4126 15.7463 51.6665 16.6668 51.6665C17.5873 51.6665 18.3334 52.4126 18.3334 53.3331C18.3334 54.2536 17.5873 54.9997 16.6668 54.9997C15.7463 54.9997 15.0002 54.2536 15.0002 53.3331ZM52.6042 55.7485C52.8314 55.859 53.0808 55.9165 53.3336 55.9165C53.6461 55.9161 53.9523 55.8279 54.2171 55.6618C54.4819 55.4957 54.6947 55.2586 54.8311 54.9773C54.9675 54.6961 55.0221 54.3822 54.9886 54.0714C54.9552 53.7606 54.835 53.4655 54.6418 53.2198L46.3084 42.6048C46.1312 42.3649 45.893 42.177 45.6185 42.0605C45.3439 41.9441 45.0432 41.9034 44.7476 41.9427C44.4521 41.9821 44.1726 42.1001 43.9381 42.2844C43.7037 42.4686 43.523 42.7124 43.4148 42.9902C43.3067 43.2681 43.275 43.5698 43.3231 43.8641C43.3712 44.1583 43.4974 44.4343 43.6884 44.6632L52.0219 55.2782C52.1778 55.4771 52.3769 55.6379 52.6042 55.7485Z" fill="black"/>
</svg>
