<svg width="100" height="100" viewBox="0 0 100 100" fill="none" xmlns="http://www.w3.org/2000/svg">
<path fill-rule="evenodd" clip-rule="evenodd" d="M90 100H68.3334C68.0827 99.9972 67.836 99.9369 67.6123 99.8236C67.3886 99.7103 67.194 99.5472 67.0433 99.3467L67.0234 99.3633L33.3334 56.485V71.6666C33.3334 73.5077 31.841 75 30 75H28.7109V79.1573C28.7109 81.2838 27.0057 83.0078 24.9023 83.0078C22.799 83.0078 21.0938 81.2838 21.0938 79.1573V75H19.5312V79.1573C19.5312 81.2838 17.826 83.0078 15.7227 83.0078C13.6193 83.0078 11.9141 81.2838 11.9141 79.1573V75H10.3516V79.1573C10.3516 81.2838 8.64632 83.0078 6.54297 83.0078C4.43961 83.0078 2.73438 81.2838 2.73438 79.1573V74.9464C1.17923 74.6642 -3.8147e-05 73.3032 -3.8147e-05 71.6666V10C0.00543213 4.47949 4.47946 0.00546875 9.99997 0H31.6666C31.9173 0.0027872 32.164 0.0631495 32.3877 0.176427C32.6114 0.289705 32.806 0.452868 32.9566 0.653321L32.9765 0.636719L66.6666 43.5151V28.3334C66.6666 26.4924 68.159 25 70 25H70.5078V20.0614C70.5078 17.9349 72.213 16.2109 74.3164 16.2109C76.4198 16.2109 78.125 17.9349 78.125 20.0614V25H79.6875V20.0614C79.6875 17.9349 81.3927 16.2109 83.4961 16.2109C85.5994 16.2109 87.3047 17.9349 87.3047 20.0614V25H88.8672V20.0614C88.8672 17.9349 90.5724 16.2109 92.6758 16.2109C94.7791 16.2109 96.4844 17.9349 96.4844 20.0614V25H96.6666C98.5076 25 100 26.4924 100 28.3334V90C99.9945 95.5205 95.5205 99.9946 90 100ZM5.27348 75H7.81245V79.1573C7.81245 79.4977 7.6787 79.8242 7.44063 80.0649C7.20255 80.3056 6.87965 80.4408 6.54297 80.4408C6.20628 80.4408 5.88338 80.3056 5.64531 80.0649C5.40723 79.8242 5.27348 79.4977 5.27348 79.1573V75ZM16.9921 79.1573V75H15H14.4532V79.1573C14.4532 79.4977 14.5869 79.8242 14.825 80.0649C15.0631 80.3056 15.386 80.4408 15.7227 80.4408C16.0593 80.4408 16.3822 80.3056 16.6203 80.0649C16.8584 79.8242 16.9921 79.4977 16.9921 79.1573ZM23.6329 75H26.1718V79.1573C26.1718 79.4977 26.0381 79.8242 25.8 80.0649C25.5619 80.3056 25.239 80.4408 24.9023 80.4408C24.5657 80.4408 24.2428 80.3056 24.0047 80.0649C23.7666 79.8242 23.6329 79.4977 23.6329 79.1573V75ZM73.0469 20.0614V25H75.5859V20.0614C75.5859 19.721 75.4521 19.3946 75.2141 19.1539C74.976 18.9132 74.6531 18.778 74.3164 18.778C73.9797 18.778 73.6568 18.9132 73.4187 19.1539C73.1807 19.3946 73.0469 19.721 73.0469 20.0614ZM84.7656 25H82.2266V20.0614C82.2266 19.721 82.3604 19.3946 82.5984 19.1539C82.8365 18.9132 83.1594 18.778 83.4961 18.778C83.8328 18.778 84.1557 18.9132 84.3938 19.1539C84.6318 19.3946 84.7656 19.721 84.7656 20.0614V25ZM91.4063 20.0614V25H93.9453V20.0614C93.9453 19.721 93.8115 19.3946 93.5734 19.1539C93.3354 18.9132 93.0125 18.778 92.6758 18.778C92.3391 18.778 92.0162 18.9132 91.7781 19.1539C91.54 19.3946 91.4063 19.721 91.4063 20.0614ZM30 3.3334H9.99997C6.31813 3.3334 3.33336 6.31817 3.33336 10V71.6666H30V3.3334ZM33.3334 6.48496V26.09L39.6433 34.1201C39.7819 34.2918 39.885 34.4894 39.9466 34.7012C40.0082 34.9131 40.0272 35.1351 40.0024 35.3543C39.9775 35.5735 39.9094 35.7857 39.802 35.9784C39.6945 36.1711 39.5499 36.3405 39.3764 36.4769C39.203 36.6133 39.0042 36.7138 38.7915 36.7728C38.5789 36.8317 38.3567 36.8479 38.1378 36.8202C37.9189 36.7926 37.7076 36.7218 37.5163 36.6119C37.325 36.5021 37.1574 36.3553 37.0232 36.1801L33.3332 31.4834V51.0918L66.6666 93.5151V73.91L58.6898 63.7633C58.4273 63.415 58.3117 62.9777 58.3679 62.5451C58.4241 62.1126 58.6476 61.7193 58.9905 61.4497C59.3334 61.1801 59.7683 61.0556 60.2019 61.103C60.6355 61.1504 61.0332 61.3658 61.3098 61.7032L66.6664 68.5164V48.9084L33.3334 6.48496ZM96.6666 28.3334H70V96.6668H90C93.6818 96.6668 96.6666 93.6821 96.6666 90.0002V28.3334ZM85.026 90.0393H90.026C91.867 90.0393 93.3594 88.5469 93.3594 86.7061V73.3727C93.3594 71.5316 91.867 70.0393 90.026 70.0393H85.026V66.7057C85.026 66.2636 84.8504 65.8397 84.5378 65.5272C84.2253 65.2146 83.8014 65.0391 83.3594 65.0391C82.9174 65.0391 82.4935 65.2146 82.1809 65.5272C81.8684 65.8397 81.6928 66.2636 81.6928 66.7057V70.0391H76.6928C74.8517 70.0391 73.3594 71.5314 73.3594 73.3725V86.7059C73.3594 88.5469 74.8517 90.0393 76.6928 90.0393H81.6928V93.3727C81.6928 93.8147 81.8684 94.2386 82.1809 94.5511C82.4935 94.8637 82.9174 95.0393 83.3594 95.0393C83.8014 95.0393 84.2253 94.8637 84.5378 94.5511C84.8504 94.2386 85.026 93.8147 85.026 93.3727V90.0393ZM76.6926 73.3727H90.026V86.7061H76.6926V73.3727ZM83.5714 78.135C82.6728 76.906 82.9407 75.1814 84.1696 74.2829C85.3984 73.3844 87.1231 73.6522 88.0217 74.8811C88.9202 76.11 88.6523 77.8347 87.4235 78.7332C86.1946 79.6317 84.4699 79.3639 83.5714 78.135ZM84.9571 77.1363C84.6387 76.7009 84.7337 76.0899 85.169 75.7716C85.6044 75.4532 86.2154 75.5481 86.5337 75.9835C86.852 76.4189 86.7572 77.0299 86.3218 77.3482C85.8864 77.6665 85.2754 77.5717 84.9571 77.1363ZM79.0902 77.9941C77.8613 78.8926 77.5934 80.6173 78.492 81.8462C79.3905 83.0752 81.1152 83.3429 82.3441 82.4444C83.5729 81.5459 83.8408 79.8212 82.9423 78.5923C82.0438 77.3635 80.319 77.0956 79.0902 77.9941ZM80.0893 79.4823C79.654 79.8006 79.5591 80.4116 79.8774 80.847C80.1957 81.2824 80.8067 81.3773 81.2421 81.059C81.6775 80.7406 81.7724 80.1296 81.454 79.6943C81.1357 79.2589 80.5247 79.164 80.0893 79.4823ZM83.7654 85.1662C82.8668 83.9373 83.1347 82.2126 84.3636 81.3141C85.5925 80.4156 87.3172 80.6835 88.2157 81.9123C89.1142 83.1412 88.8464 84.8659 87.6175 85.7644C86.3886 86.6629 84.664 86.3952 83.7654 85.1662ZM85.1508 84.1675C84.8325 83.7321 84.9274 83.1211 85.3628 82.8028C85.7981 82.4845 86.4092 82.5794 86.7275 83.0147C87.0458 83.4501 86.9509 84.0611 86.5155 84.3794C86.0802 84.6978 85.4692 84.6029 85.1508 84.1675ZM84.9996 56.6665H89.9996C91.8406 56.6665 93.333 55.1741 93.333 53.3333V39.9999C93.333 38.1589 91.8406 36.6665 89.9996 36.6665H84.9996V33.3331C84.9996 32.8911 84.824 32.4672 84.5115 32.1546C84.1989 31.8421 83.775 31.6665 83.333 31.6665C82.891 31.6665 82.4671 31.8421 82.1545 32.1546C81.842 32.4672 81.6664 32.8911 81.6664 33.3331V36.6665H76.6664C74.8254 36.6665 73.333 38.1589 73.333 39.9999V53.3331C73.333 55.1741 74.8254 56.6665 76.6664 56.6665H81.6664V59.9999C81.6664 60.4419 81.842 60.8658 82.1545 61.1784C82.4671 61.4909 82.891 61.6665 83.333 61.6665C83.775 61.6665 84.1989 61.4909 84.5115 61.1784C84.824 60.8658 84.9996 60.4419 84.9996 59.9999V56.6665ZM76.6662 39.9999H89.9996V53.3333H76.6662V39.9999ZM23.4244 30.0781H18.4244V33.4115C18.4244 33.8535 18.2488 34.2775 17.9363 34.59C17.6237 34.9026 17.1998 35.0781 16.7578 35.0781C16.3158 35.0781 15.8919 34.9026 15.5793 34.59C15.2668 34.2775 15.0912 33.8535 15.0912 33.4115V30.0781H10.0912C8.25018 30.0781 6.7578 28.5858 6.7578 26.7447V13.4115C6.7578 11.5705 8.25018 10.0781 10.0912 10.0781H15.0912V6.74473C15.0912 6.30272 15.2668 5.87881 15.5793 5.56626C15.8919 5.25371 16.3158 5.07812 16.7578 5.07812C17.1998 5.07812 17.6237 5.25371 17.9363 5.56626C18.2488 5.87881 18.4244 6.30272 18.4244 6.74473V10.0781H23.4244C25.2654 10.0781 26.7578 11.5705 26.7578 13.4115V26.7449C26.7576 28.5858 25.2652 30.0781 23.4244 30.0781ZM23.4244 13.4115H10.091V26.7449H23.4244V13.4115ZM17.568 14.3226C16.3391 15.2211 16.0712 16.9457 16.9698 18.1747C17.8684 19.4036 19.593 19.6714 20.8219 18.7729C22.0508 17.8744 22.3186 16.1496 21.4201 14.9208C20.5216 13.6919 18.7969 13.4241 17.568 14.3226ZM18.5673 15.8114C18.1319 16.1297 18.037 16.7407 18.3553 17.1761C18.6737 17.6115 19.2847 17.7064 19.7201 17.388C20.1554 17.0697 20.2503 16.4587 19.932 16.0233C19.6137 15.588 19.0026 15.4931 18.5673 15.8114ZM11.8904 21.8856C10.9918 20.6566 11.2597 18.932 12.4886 18.0335C13.7175 17.135 15.4422 17.4028 16.3407 18.6317C17.2392 19.8606 16.9714 21.5853 15.7425 22.4838C14.5136 23.3823 12.789 23.1146 11.8904 21.8856ZM13.2758 20.8866C12.9575 20.4512 13.0524 19.8402 13.4878 19.5219C13.9231 19.2035 14.5342 19.2984 14.8525 19.7338C15.1708 20.1691 15.0759 20.7802 14.6405 21.0985C14.2052 21.4168 13.5942 21.322 13.2758 20.8866ZM17.762 21.3538C16.5332 22.2523 16.2653 23.977 17.1638 25.2059C18.0624 26.4349 19.7871 26.7026 21.0159 25.8041C22.2448 24.9056 22.5126 23.1809 21.6141 21.952C20.7156 20.7232 18.9909 20.4553 17.762 21.3538ZM18.7612 22.8422C18.3258 23.1605 18.2309 23.7715 18.5493 24.2069C18.8676 24.6423 19.4786 24.7371 19.914 24.4188C20.3493 24.1005 20.4442 23.4895 20.1259 23.0541C19.8076 22.6187 19.1966 22.5238 18.7612 22.8422ZM23.4244 63.2813H18.4244V66.6147C18.4244 67.0567 18.2488 67.4806 17.9363 67.7931C17.6237 68.1057 17.1998 68.2813 16.7578 68.2813C16.3158 68.2813 15.8919 68.1057 15.5793 67.7931C15.2668 67.4806 15.0912 67.0567 15.0912 66.6147V63.2813H10.0912C8.25018 63.2813 6.7578 61.7889 6.7578 59.9479V46.6145C6.7578 44.7734 8.25018 43.2811 10.0912 43.2811H15.0912V39.9479C15.0912 39.5058 15.2668 39.0819 15.5793 38.7694C15.8919 38.4568 16.3158 38.2812 16.7578 38.2812C17.1998 38.2812 17.6237 38.4568 17.9363 38.7694C18.2488 39.0819 18.4244 39.5058 18.4244 39.9479V43.2813H23.4244C25.2654 43.2813 26.7578 44.7736 26.7578 46.6147V59.9479C26.7576 61.7889 25.2652 63.2813 23.4244 63.2813ZM23.4244 46.6145H10.091V59.9479H23.4244V46.6145ZM17.568 47.5254C16.3391 48.4239 16.0712 50.1485 16.9698 51.3775C17.8684 52.6064 19.593 52.8742 20.8219 51.9757C22.0508 51.0772 22.3186 49.3525 21.4201 48.1236C20.5216 46.8947 18.7969 46.6269 17.568 47.5254ZM18.5675 49.0136C18.1321 49.3319 18.0372 49.9429 18.3555 50.3783C18.6739 50.8137 19.2849 50.9085 19.7202 50.5902C20.1556 50.2719 20.2505 49.6609 19.9322 49.2255C19.6138 48.7901 19.0028 48.6953 18.5675 49.0136ZM11.8904 55.0887C10.9918 53.8598 11.2597 52.1351 12.4886 51.2366C13.7175 50.3381 15.4422 50.606 16.3407 51.8348C17.2392 53.0637 16.9714 54.7884 15.7425 55.6869C14.5136 56.5854 12.789 56.3177 11.8904 55.0887ZM13.2758 54.0897C12.9575 53.6543 13.0524 53.0433 13.4878 52.725C13.9231 52.4067 14.5342 52.5015 14.8525 52.9369C15.1708 53.3723 15.0759 53.9833 14.6405 54.3016C14.2052 54.6199 13.5942 54.5251 13.2758 54.0897ZM17.762 54.5566C16.5332 55.4551 16.2653 57.1798 17.1638 58.4087C18.0624 59.6377 19.7871 59.9054 21.0159 59.0069C22.2448 58.1084 22.5126 56.3837 21.6141 55.1548C20.7156 53.926 18.9909 53.6581 17.762 54.5566ZM18.7612 56.0451C18.3258 56.3635 18.2309 56.9745 18.5493 57.4099C18.8676 57.8452 19.4786 57.9401 19.914 57.6218C20.3493 57.3035 20.4442 56.6924 20.1259 56.2571C19.8076 55.8217 19.1966 55.7268 18.7612 56.0451ZM53.3336 55.9165C53.0808 55.9165 52.8314 55.8591 52.6042 55.7485C52.3769 55.6379 52.1778 55.4771 52.0219 55.2782L43.6884 44.6632C43.4974 44.4343 43.3712 44.1583 43.3231 43.8641C43.275 43.5698 43.3067 43.2681 43.4148 42.9902C43.523 42.7124 43.7037 42.4686 43.9381 42.2844C44.1726 42.1001 44.4521 41.9821 44.7476 41.9427C45.0432 41.9034 45.3439 41.9441 45.6184 42.0605C45.893 42.177 46.1312 42.3649 46.3084 42.6048L54.6418 53.2198C54.835 53.4656 54.9552 53.7607 54.9886 54.0714C55.0221 54.3822 54.9675 54.6961 54.8311 54.9773C54.6947 55.2586 54.4819 55.4958 54.2171 55.6618C53.9523 55.8279 53.6461 55.9162 53.3336 55.9165ZM83.7796 40.6896C82.5507 41.5881 82.2828 43.3127 83.1814 44.5417C84.0799 45.7706 85.8046 46.0384 87.0335 45.1399C88.2623 44.2414 88.5302 42.5167 87.6317 41.2878C86.7332 40.0589 85.0084 39.7911 83.7796 40.6896ZM84.7789 42.1781C84.3435 42.4964 84.2486 43.1074 84.567 43.5428C84.8853 43.9782 85.4963 44.0731 85.9317 43.7547C86.367 43.4364 86.4619 42.8254 86.1436 42.39C85.8253 41.9547 85.2143 41.8598 84.7789 42.1781ZM78.1026 48.2526C77.204 47.0237 77.4719 45.299 78.7008 44.4005C79.9297 43.502 81.6544 43.7699 82.5529 44.9987C83.4514 46.2276 83.1836 47.9523 81.9547 48.8508C80.7258 49.7493 79.0012 49.4816 78.1026 48.2526ZM79.4883 47.2536C79.17 46.8182 79.2649 46.2072 79.7003 45.8889C80.1356 45.5705 80.7467 45.6654 81.065 46.1008C81.3833 46.5362 81.2884 47.1472 80.853 47.4655C80.4177 47.7838 79.8067 47.689 79.4883 47.2536ZM83.9743 47.7208C82.7454 48.6193 82.4775 50.344 83.376 51.5729C84.2746 52.8019 85.9993 53.0696 87.2281 52.1711C88.457 51.2726 88.7248 49.5479 87.8263 48.319C86.9278 47.0902 85.2031 46.8223 83.9743 47.7208ZM84.9737 49.2092C84.5383 49.5275 84.4434 50.1385 84.7618 50.5739C85.0801 51.0093 85.6911 51.1041 86.1265 50.7858C86.5618 50.4675 86.6567 49.8565 86.3384 49.4211C86.0201 48.9857 85.4091 48.8909 84.9737 49.2092ZM8.85155 5.07813C8.85155 4.2497 9.52312 3.57812 10.3515 3.57812C11.18 3.57812 11.8515 4.2497 11.8515 5.07813V7.61719C11.8515 8.44562 11.18 9.11719 10.3515 9.11719C9.52312 9.11719 8.85155 8.44562 8.85155 7.61719V5.07813ZM21.7422 5.07812C21.7422 4.2497 22.4137 3.57812 23.2422 3.57812C24.0706 3.57812 24.7422 4.2497 24.7422 5.07812V7.61719C24.7422 8.44562 24.0706 9.11719 23.2422 9.11719C22.4137 9.11719 21.7422 8.44562 21.7422 7.61719V5.07812ZM75.4531 30.8594C75.4531 30.0309 76.1247 29.3594 76.9531 29.3594C77.7815 29.3594 78.4531 30.0309 78.4531 30.8594V34.5703C78.4531 35.3987 77.7815 36.0703 76.9531 36.0703C76.1247 36.0703 75.4531 35.3987 75.4531 34.5703V30.8594ZM88.3437 30.8594C88.3437 30.0309 89.0153 29.3594 89.8437 29.3594C90.6722 29.3594 91.3437 30.0309 91.3437 30.8594V34.5703C91.3437 35.3987 90.6722 36.0703 89.8437 36.0703C89.0153 36.0703 88.3437 35.3987 88.3437 34.5703V30.8594ZM75.3555 58.7891C75.3555 57.9606 76.027 57.2891 76.8555 57.2891C77.6839 57.2891 78.3555 57.9606 78.3555 58.7891V67.7734C78.3555 68.6019 77.6839 69.2734 76.8555 69.2734C76.027 69.2734 75.3555 68.6019 75.3555 67.7734V58.7891ZM88.3438 58.7891C88.3438 57.9606 89.0153 57.2891 89.8438 57.2891C90.6722 57.2891 91.3438 57.9606 91.3438 58.7891V67.7734C91.3438 68.6019 90.6722 69.2734 89.8438 69.2734C89.0153 69.2734 88.3438 68.6019 88.3438 67.7734V58.7891ZM10.1562 30.9219C9.3278 30.9219 8.65623 31.5934 8.65623 32.4219V41.4063C8.65623 42.2347 9.3278 42.9063 10.1562 42.9063C10.9847 42.9063 11.6562 42.2347 11.6562 41.4063V32.4219C11.6562 31.5934 10.9847 30.9219 10.1562 30.9219ZM23.0469 30.9219C22.2184 30.9219 21.5469 31.5934 21.5469 32.4219V41.4063C21.5469 42.2347 22.2184 42.9063 23.0469 42.9063C23.8753 42.9063 24.5469 42.2347 24.5469 41.4063V32.4219C24.5469 31.5934 23.8753 30.9219 23.0469 30.9219ZM75.4531 91.9922C75.4531 91.1638 76.1247 90.4922 76.9531 90.4922C77.7815 90.4922 78.4531 91.1638 78.4531 91.9922V94.5312C78.4531 95.3597 77.7815 96.0312 76.9531 96.0312C76.1247 96.0312 75.4531 95.3597 75.4531 94.5312V91.9922ZM88.3437 91.9922C88.3437 91.1638 89.0153 90.4922 89.8437 90.4922C90.6722 90.4922 91.3437 91.1638 91.3437 91.9922V94.5312C91.3437 95.3597 90.6722 96.0312 89.8437 96.0312C89.0153 96.0312 88.3437 95.3597 88.3437 94.5312V91.9922ZM10.3515 64.3203C9.52312 64.3203 8.85155 64.9919 8.85155 65.8203V69.7266C8.85155 70.555 9.52312 71.2266 10.3515 71.2266C11.18 71.2266 11.8515 70.555 11.8515 69.7266V65.8203C11.8515 64.9919 11.18 64.3203 10.3515 64.3203ZM23.2422 64.3203C22.4137 64.3203 21.7422 64.9919 21.7422 65.8203V69.7266C21.7422 70.555 22.4137 71.2266 23.2422 71.2266C24.0706 71.2266 24.7422 70.555 24.7422 69.7266V65.8203C24.7422 64.9919 24.0706 64.3203 23.2422 64.3203Z" fill="black"/>
</svg>
