<svg width="100" height="100" viewBox="0 0 100 100" fill="none" xmlns="http://www.w3.org/2000/svg">
<path fill-rule="evenodd" clip-rule="evenodd" d="M68.3334 100H90C95.5205 99.9945 99.9945 95.5205 100 90V28.3334C100 26.4924 98.5076 25 96.6666 25H95V18.3334C95 15.5721 92.7613 13.3334 90 13.3334C87.2387 13.3334 85 15.5721 85 18.3334V25H81.6666V18.3334C81.6666 15.5721 79.4279 13.3334 76.6666 13.3334C73.9053 13.3334 71.6666 15.5721 71.6666 18.3334V25H70C68.159 25 66.6666 26.4924 66.6666 28.3334V43.515L32.9766 0.636719L32.9566 0.65332C32.806 0.452868 32.6114 0.289705 32.3877 0.176427C32.164 0.0631495 31.9173 0.0027872 31.6666 0H10C4.47949 0.00546875 0.00547028 4.47949 0 10V71.6666C0 73.5076 1.49238 75 3.3334 75H5V81.6666C5 84.4279 7.23868 86.6666 10 86.6666C12.7613 86.6666 15 84.4279 15 81.6666V75H18.3334V81.6666C18.3334 84.4279 20.5721 86.6666 23.3334 86.6666C26.0947 86.6666 28.3334 84.4279 28.3334 81.6666V75H30C31.841 75 33.3334 73.5076 33.3334 71.6666V56.485L67.0234 99.3633L67.0434 99.3467C67.194 99.5471 67.3886 99.7103 67.6123 99.8235C67.836 99.9368 68.0827 99.9972 68.3334 100ZM23.3332 83.3332C22.4127 83.3332 21.6666 82.5871 21.6666 81.6666H21.6664V75H24.9998V81.6666C24.9998 82.5871 24.2537 83.3332 23.3332 83.3332ZM10 83.3332C9.0795 83.3332 8.3334 82.5871 8.3334 81.6666H8.3332V75H11.6666V81.6666C11.6666 82.5871 10.9205 83.3332 10 83.3332ZM10 3.3334H30V71.6666H3.3334V10C3.3334 6.31816 6.31817 3.3334 10 3.3334ZM33.3334 26.09V6.48496L66.6664 48.9084V68.5164L61.3098 61.7031C61.0332 61.3658 60.6355 61.1504 60.2019 61.103C59.7683 61.0556 59.3334 61.18 58.9905 61.4497C58.6476 61.7193 58.4241 62.1126 58.3679 62.5451C58.3117 62.9776 58.4273 63.415 58.6898 63.7633L66.6666 73.91V93.515L33.3332 51.0918V31.4834L37.0232 36.1801C37.1574 36.3552 37.325 36.502 37.5163 36.6119C37.7077 36.7218 37.9189 36.7926 38.1378 36.8202C38.3567 36.8478 38.5789 36.8317 38.7916 36.7728C39.0042 36.7138 39.203 36.6133 39.3764 36.4769C39.5499 36.3405 39.6945 36.1711 39.802 35.9784C39.9094 35.7856 39.9776 35.5735 40.0024 35.3543C40.0272 35.135 40.0083 34.9131 39.9466 34.7012C39.885 34.4893 39.7819 34.2918 39.6434 34.1201L33.3334 26.09ZM77.8453 17.1549C78.1578 17.4675 78.3334 17.8914 78.3334 18.3334L78.3336 25H75.0002V18.3334C75.0002 17.8914 75.1758 17.4675 75.4883 17.1549C75.8009 16.8424 76.2248 16.6668 76.6668 16.6668C77.1088 16.6668 77.5327 16.8424 77.8453 17.1549ZM91.1785 17.1549C91.491 17.4675 91.6666 17.8914 91.6666 18.3334V25H88.3334V18.3334C88.3334 17.8914 88.509 17.4675 88.8215 17.1549C89.1341 16.8424 89.558 16.6668 90 16.6668C90.442 16.6668 90.8659 16.8424 91.1785 17.1549ZM70 28.3334H96.6666V90.0002C96.6666 93.682 93.6818 96.6668 90 96.6668H70V28.3334ZM85.026 94.4336H90.026C91.867 94.4336 93.3594 92.9412 93.3594 91.1004V38.607C93.3594 36.766 91.867 35.2736 90.026 35.2736H85.026V31.94C85.026 31.498 84.8504 31.0741 84.5378 30.7616C84.2253 30.449 83.8014 30.2734 83.3594 30.2734C82.9174 30.2734 82.4935 30.449 82.1809 30.7616C81.8684 31.0741 81.6928 31.498 81.6928 31.94V35.2734H76.6928C74.8518 35.2734 73.3594 36.7658 73.3594 38.6068V91.1002C73.3594 92.9412 74.8518 94.4336 76.6928 94.4336H81.6928H82.1809H83.3594H84.5378H85.026ZM76.6926 38.607H90.026V91.1004H76.6926V38.607ZM23.2291 4.88281H18.2291H17.741H16.5625H15.384H14.8959H9.8959C8.05488 4.88281 6.5625 6.37519 6.5625 8.21621V60.7096C6.5625 62.5506 8.05488 64.043 9.8959 64.043H14.8959V67.3764C14.8959 67.8184 15.0715 68.2423 15.384 68.5548C15.6966 68.8674 16.1205 69.043 16.5625 69.043C17.0045 69.043 17.4284 68.8674 17.741 68.5548C18.0535 68.2423 18.2291 67.8184 18.2291 67.3764V64.0428H23.2291C25.0701 64.0428 26.5625 62.5504 26.5625 60.7094V8.21601C26.5625 6.37519 25.0701 4.88281 23.2291 4.88281ZM23.2291 60.7094H9.89571V8.21601H23.2291V60.7094ZM52.6042 55.7485C52.8314 55.859 53.0808 55.9165 53.3336 55.9165C53.6461 55.9161 53.9523 55.8279 54.2171 55.6618C54.4819 55.4957 54.6947 55.2586 54.8311 54.9773C54.9675 54.6961 55.0221 54.3822 54.9886 54.0714C54.9552 53.7606 54.835 53.4655 54.6418 53.2198L46.3084 42.6048C46.1312 42.3649 45.893 42.177 45.6185 42.0605C45.3439 41.9441 45.0432 41.9034 44.7476 41.9427C44.4521 41.9821 44.1726 42.1001 43.9381 42.2844C43.7037 42.4686 43.523 42.7124 43.4148 42.9902C43.3067 43.2681 43.275 43.5698 43.3231 43.8641C43.3712 44.1583 43.4974 44.4343 43.6884 44.6632L52.0219 55.2782C52.1778 55.4771 52.3769 55.6379 52.6042 55.7485Z" fill="black"/>
</svg>
