<svg width="100" height="82" viewBox="0 0 100 82" fill="none" xmlns="http://www.w3.org/2000/svg">
<path d="M6.22832 25.4461C2.79414 25.4461 0 28.2404 0 31.6746V49.5379C0 52.9723 2.79414 55.7662 6.22832 55.7662C9.66269 55.7662 12.4566 52.9723 12.4566 49.5381V31.6746C12.4566 28.2404 9.6625 25.4461 6.22832 25.4461ZM9.52695 49.5379C9.52695 51.3568 8.04707 52.8365 6.22832 52.8365C4.40957 52.8365 2.92969 51.3568 2.92969 49.5379V31.6744C2.92969 29.8555 4.40937 28.3758 6.22832 28.3758C8.04727 28.3758 9.52695 29.8555 9.52695 31.6744V49.5379ZM20.8189 17.0533C17.3848 17.0533 14.5906 19.8475 14.5906 23.2816V57.9305C14.5906 61.3647 17.3846 64.1588 20.8189 64.1588C24.2531 64.1588 27.0473 61.3647 27.0473 57.9305V23.2816C27.0473 19.8475 24.2531 17.0533 20.8189 17.0533ZM24.1176 57.9305C24.1176 59.7494 22.6377 61.2291 20.8189 61.2291C19.0002 61.2291 17.5203 59.7494 17.5203 57.9305V23.2816C17.5203 21.4627 19 19.983 20.8189 19.983C22.6377 19.983 24.1176 21.4627 24.1176 23.2816V57.9305ZM35.4094 6.85918C31.975 6.85918 29.1811 9.65332 29.1811 13.0875V68.1244C29.1811 71.5586 31.9752 74.3527 35.4094 74.3527C38.8438 74.3527 41.6377 71.5588 41.6377 68.1244V13.0875C41.6377 9.65332 38.8438 6.85918 35.4094 6.85918ZM38.708 68.1248C38.708 69.9438 37.2283 71.4234 35.4094 71.4234C33.5904 71.4234 32.1107 69.9438 32.1107 68.1248V13.0879C32.1107 11.2689 33.5904 9.78926 35.4094 9.78926C37.2283 9.78926 38.708 11.2689 38.708 13.0877V68.1248ZM50 0C46.5658 0 43.7717 2.79414 43.7717 6.22832V74.984C43.7717 78.4182 46.5656 81.2123 50 81.2123C53.4342 81.2123 56.2283 78.4184 56.2283 74.984V6.22813C56.2283 2.79395 53.4342 0 50 0ZM53.2986 74.984C53.2986 76.8029 51.8187 78.2826 50 78.2826C48.1813 78.2826 46.7014 76.8029 46.7014 74.984V6.22852C46.7014 4.40957 48.1811 2.92988 50 2.92988C51.8187 2.92988 53.2986 4.40957 53.2986 6.22832V74.984ZM64.5904 11.8133C61.1562 11.8133 58.3621 14.6074 58.3621 18.0418V63.1703C58.3621 66.6047 61.1562 69.3988 64.5904 69.3988C68.0248 69.3988 70.8189 66.6047 70.8189 63.1705V18.0418C70.8189 14.6074 68.0248 11.8133 64.5904 11.8133ZM67.8893 63.1707C67.8893 64.9897 66.4096 66.4695 64.5904 66.4695C62.7715 66.4695 61.2918 64.9897 61.2918 63.1707V18.0418C61.2918 16.2229 62.7715 14.743 64.5904 14.743C66.4096 14.743 67.8893 16.2229 67.8893 18.0418V63.1707ZM79.1811 6.85918C75.7469 6.85918 72.9527 9.65332 72.9527 13.0875V68.1244C72.9527 71.5586 75.7469 74.3527 79.1811 74.3527C82.6152 74.3527 85.4094 71.5588 85.4094 68.1244V13.0875C85.4094 9.65332 82.6152 6.85918 79.1811 6.85918ZM82.4797 68.1248C82.4797 69.9438 81 71.4234 79.1811 71.4234C77.3621 71.4234 75.8824 69.9438 75.8824 68.1248V13.0879C75.8824 11.2689 77.3621 9.78926 79.1811 9.78926C81 9.78926 82.4797 11.2689 82.4797 13.0877V68.1248ZM93.7717 22.6105C90.3373 22.6105 87.5432 25.4047 87.5432 28.8391V52.3732C87.5432 55.8076 90.3373 58.6018 93.7717 58.6018C97.2059 58.6018 100 55.8076 100 52.3732V28.8391C100 25.4047 97.2059 22.6105 93.7717 22.6105ZM97.0703 52.3732C97.0703 54.1924 95.5906 55.6721 93.7717 55.6721C91.9525 55.6721 90.4729 54.1924 90.4729 52.3732V28.8391C90.4729 27.0201 91.9527 25.5402 93.7717 25.5402C95.5906 25.5402 97.0703 27.0201 97.0703 28.8391V52.3732Z" fill="black"/>
</svg>
