<svg width="102" height="35" viewBox="0 0 102 35" fill="none" xmlns="http://www.w3.org/2000/svg">
<path fill-rule="evenodd" clip-rule="evenodd" d="M88.6816 9.80322C88.627 9.48047 88.4238 9.21973 88.1543 9.08008C88.0938 9.02344 88.0254 8.97363 87.9502 8.93311L83.5957 6.59521C76.4092 2.73584 68.4287 0.587891 60.2754 0.317871L50.6797 0.000488281C50.6162 -0.00146484 50.5527 0.00244141 50.4912 0.012207C50.4316 0.00292969 50.3701 -0.000976562 50.3066 0.00146484L41.6699 0.300293C33.5449 0.581543 25.5928 2.72803 18.4297 6.57471L14.0381 8.93262C13.9629 8.97314 13.8945 9.02246 13.834 9.07959C13.626 9.1875 13.457 9.36719 13.3662 9.59229C13.3398 9.65869 13.3203 9.729 13.3076 9.80273L11.0498 23.291C10.959 23.8359 11.3262 24.3516 11.8711 24.4424C12.416 24.5337 12.9316 24.166 13.0225 23.6211L15.2227 10.4766L19.3994 8.2334C26.1982 4.58252 33.7451 2.54248 41.457 2.27051L50.375 1.95605C50.416 1.95459 50.457 1.95068 50.4971 1.94434C50.5352 1.9502 50.5752 1.9541 50.6152 1.95508L60.5156 2.28906C68.2373 2.54932 75.7949 4.58594 82.6016 8.24072L86.7666 10.4771L88.9658 23.6221C89.0566 24.1665 89.5723 24.5342 90.1172 24.4434C90.6621 24.3521 91.0293 23.8364 90.9385 23.292L88.6816 9.80322ZM7.88965 29.1621L7.62891 30.8857H9.37207H92.4863H94.2295L93.9688 29.1621L91.7412 14.397C91.6562 13.8394 92.04 13.3218 92.5977 13.2393C93.1592 13.1562 93.6836 13.5449 93.7686 14.106L96.1084 29.6094L96.3008 30.8857H97.5918H99.5C100.053 30.8857 100.5 31.3335 100.5 31.8857C100.5 32.1626 100.388 32.4131 100.205 32.5942C100.024 32.7744 99.7754 32.8857 99.5 32.8857H2.5C1.94727 32.8857 1.5 32.438 1.5 31.8857C1.5 31.3335 1.94727 30.8857 2.5 30.8857H4.2666H5.55762L5.75 29.6094L8.08984 14.106C8.1748 13.5449 8.69922 13.1562 9.26074 13.2393C9.81836 13.3218 10.2021 13.8394 10.1172 14.397L7.88965 29.1621ZM11.6006 14.6211L9.59863 27.8857L9.37207 29.3857H10.8896H90.9688H92.4863L92.2598 27.8857L90.2578 14.6211C90.0498 13.2427 90.999 11.9595 92.3779 11.7554C93.7568 11.5513 95.0439 12.5034 95.252 13.8818L97.5918 29.3857H99.5C100.881 29.3857 102 30.5049 102 31.8857C102 33.2666 100.881 34.3857 99.5 34.3857H2.5C1.11914 34.3857 0 33.2666 0 31.8857C0 30.5049 1.11914 29.3857 2.5 29.3857H4.2666L6.60645 13.8818C6.81445 12.5034 8.10156 11.5513 9.48047 11.7554C10.8594 11.9595 11.8086 13.2427 11.6006 14.6211Z" fill="black"/>
</svg>
