<svg width="102" height="48" viewBox="0 0 102 48" fill="none" xmlns="http://www.w3.org/2000/svg">
<path fill-rule="evenodd" clip-rule="evenodd" d="M10.2508 27.7884C10.2508 13.7589 21.624 2.38574 35.6535 2.38574H66.3465C80.376 2.38574 91.7492 13.7589 91.7492 27.7884C91.7492 28.3407 92.1969 28.7884 92.7492 28.7884C93.3015 28.7884 93.7492 28.3407 93.7492 27.7884C93.7492 12.6543 81.4806 0.385742 66.3465 0.385742H35.6535C20.5194 0.385742 8.25082 12.6543 8.25082 27.7884C8.25082 28.3407 8.69854 28.7884 9.25082 28.7884C9.80311 28.7884 10.2508 28.3407 10.2508 27.7884ZM3 14.7638H3.39551C4.22393 14.7638 4.89551 15.4354 4.89551 16.2638V39.551C4.89551 42.0362 6.91023 44.051 9.39551 44.051H92.6034C95.0887 44.051 97.1034 42.0362 97.1034 39.551V16.2638C97.1034 15.4354 97.775 14.7638 98.6034 14.7638H99C99.8284 14.7638 100.5 15.4354 100.5 16.2638V44.2638C100.5 45.0923 99.8284 45.7638 99 45.7638H3C2.17157 45.7638 1.5 45.0923 1.5 44.2638V16.2638C1.5 15.4354 2.17157 14.7638 3 14.7638ZM6.39551 16.2638C6.39551 14.607 5.05236 13.2638 3.39551 13.2638H3C1.34315 13.2638 0 14.607 0 16.2638V44.2638C0 45.9207 1.34315 47.2638 3 47.2638H99C100.657 47.2638 102 45.9207 102 44.2638V16.2638C102 14.607 100.657 13.2638 99 13.2638H98.6034C96.9466 13.2638 95.6034 14.607 95.6034 16.2638V39.551C95.6034 41.2078 94.2603 42.551 92.6034 42.551H9.39551C7.73865 42.551 6.39551 41.2078 6.39551 39.551V16.2638Z" fill="black"/>
</svg>
