<svg width="88" height="89" viewBox="0 0 88 89" fill="none" xmlns="http://www.w3.org/2000/svg">
<path fill-rule="evenodd" clip-rule="evenodd" d="M78 79.7637H79.5V78.2637V5.26367C79.5 3.33068 81.067 1.76367 83 1.76367C84.933 1.76367 86.5 3.33068 86.5 5.26367V78.2637V86.7637H78H5C3.067 86.7637 1.5 85.1967 1.5 83.2637C1.5 81.3307 3.067 79.7637 5 79.7637H78ZM78 5.26367V76.7637V78.2637H76.5H5C2.23858 78.2637 0 80.5023 0 83.2637C0 86.0251 2.23858 88.2637 5 88.2637H78H86.5H88V86.7637V78.2637V5.26367C88 2.50225 85.7614 0.263672 83 0.263672C80.2386 0.263672 78 2.50225 78 5.26367ZM3.85449 76.1191C3.85449 76.9475 4.52606 77.6191 5.35449 77.6191C6.18292 77.6191 6.85449 76.9475 6.85449 76.1191C6.85449 38.5713 37.293 8.13281 74.8408 8.13281H75.5498C76.3783 8.13281 77.0498 7.46124 77.0498 6.63281C77.0498 5.80439 76.3783 5.13281 75.5498 5.13281H74.8408C35.6362 5.13281 3.85449 36.9145 3.85449 76.1191Z" fill="black"/>
</svg>
